<!-- icon666.com - MILLIONS OF FREE VECTOR ICONS --><svg viewBox="-72 0 409 409.60666" xmlns="http://www.w3.org/2000/svg"><path d="m127.996094 406.433594c.792968 1.921875 2.660156 3.171875 4.738281 3.171875 2.074219 0 3.945313-1.25 4.734375-3.171875l34.445312-83.746094c14.890626-36.1875 36.195313-71.738281 65.140626-108.6875 18.390624-23.472656 28.113281-51.675781 28.113281-81.558594 0-36.398437-15.21875-71.582031-41.753907-96.519531-26.910156-25.289063-62.125-37.96875-99.125-35.652344-66.542968 4.132813-119.738281 57.441407-123.742187 123.992188-1.921875 31.867187 7.632813 63.296875 26.902344 88.496093 30.410156 39.777344 52.804687 77.613282 68.460937 115.667969zm-117.230469-281.558594c3.695313-61.394531 52.773437-110.570312 114.15625-114.386719 2.644531-.164062 5.273437-.242187 7.890625-.242187 31.25 0 60.679688 11.609375 83.585938 33.136718 24.847656 23.347657 38.53125 54.980469 38.53125 89.058594 0 27.570313-8.96875 53.589844-25.9375 75.246094-29.53125 37.695312-51.300782 74.039062-66.546876 111.105469l-29.710937 72.234375-27.355469-66.496094c-16-38.898438-38.832031-77.496094-69.796875-117.992188-17.773437-23.246093-26.585937-52.25-24.816406-81.664062zm0 0"></path></svg>